# AST/ASF file generated using VICON BodyLanguage
# -----------------------------------------------
:version 1.10
:name VICON
:units
  mass 1.0
  length 0.45
  angle deg
:documentation
   .ast/.asf automatically generated from VICON data using
   VICON BodyBuilder and BodyLanguage model FoxedUp or BRILLIANT.MOD
:root
   order TX TY TZ RX RY RZ
   axis XYZ
   position 0 0 0  
   orientation 0 0 0 
:bonedata
  begin
     id 1 
     name lhipjoint
     direction 0.602128 -0.715006 0.355257 
     length 2.21237 
     axis 0 0 0  XYZ
  end
  begin
     id 2 
     name lfemur
     direction 0.34202 -0.939693 0  
     length 6.71649  
     axis 0 0 20  XYZ
    dof rx ry rz
    limits (-160.0 20.0)
           (-70.0 70.0)
           (-60.0 70.0)
  end
  begin
     id 3 
     name ltibia
     direction 0.34202 -0.939693 0   
     length 6.97123   
     axis 0 0 20   XYZ
    dof rx
    limits (-10.0 170.0)
  end
  begin
     id 4 
     name lfoot
     direction 0.0655697 -0.180151 0.981451   
     length 1.80924   
     axis -90 7.62852e-016 20   XYZ
    dof rx rz
    limits (-45.0 90.0)
           (-70.0 20.0)
  end
  begin
     id 5 
     name ltoes
     direction 1.53545e-011 -4.21827e-011 1   
     length 0.916331   
     axis -90 7.62852e-016 20   XYZ
    dof rx
    limits (-90.0 20.0)
  end
  begin
     id 6 
     name rhipjoint
     direction -0.625414 -0.698792 0.347201   
     length 2.2637  
     axis 0 0 0  XYZ 
  end
  begin
     id 7 
     name rfemur
     direction -0.34202 -0.939693 0   
     length 7.07595   
     axis 0 0 -20   XYZ
    dof rx ry rz
    limits (-160.0 20.0)
           (-70.0 70.0)
           (-70.0 60.0)
  end
  begin
     id 8 
     name rtibia
     direction -0.34202 -0.939693 0   
     length 7.22924   
     axis 0 0 -20   XYZ
    dof rx
    limits (-10.0 170.0)
 end
 begin
     id 9 
     name rfoot
     direction -0.0766747 -0.210662 0.974547   
     length 1.98482  
     axis -90 -7.62852e-016 -20   XYZ
    dof rx rz
    limits (-45.0 90.0)
           (-20.0 70.0)
  end
  begin
     id 10 
     name rtoes
     direction -1.53532e-011 -4.21867e-011 1   
     length 0.999842   
     axis -90 -7.62852e-016 -20   XYZ
    dof rx
    limits (-90.0 20.0)
  end
  begin
     id 11 
     name lowerback
     direction -0.0224668 0.997354 -0.0691422   
     length 2.09945   
     axis 0 0 0   XYZ
    dof rx ry rz
    limits (-20.0 45.0)
           (-30.0 30.0)
           (-30.0 30.0)
  end
  begin
     id 12 
     name upperback
     direction 0.0134698 0.998451 -0.0539888   
     length 2.09758   
     axis 0 0 0   XYZ
    dof rx ry rz
    limits (-20.0 45.0)
           (-30.0 30.0)
           (-30.0 30.0)
  end
  begin
     id 13 
     name thorax
     direction 0.0241905 0.99948 -0.0213333   
     length 2.10428   
     axis 0 0 0   XYZ
    dof rx ry rz
    limits (-20.0 45.0)
           (-30.0 30.0)
           (-30.0 30.0)
  end
  begin
     id 14 
     name lowerneck
     direction -0.00866847 0.995978 0.0891737   
     length 1.3959   
     axis 0 0 0   XYZ
    dof rx ry rz
    limits (-20.0 45.0)
           (-30.0 30.0)
           (-30.0 30.0)
  end
  begin
     id 15 
     name upperneck
     direction 0.0680679 0.992203 0.104404   
     length 1.39452   
     axis 0 0 0   XYZ
    dof rx ry rz
    limits (-20.0 45.0)
           (-30.0 30.0)
           (-30.0 30.0)
  end
  begin
     id 16
     name head
     direction 0.0242216 0.999358 0.0264054  
     length 1.40433  
     axis 0 0 0   XYZ
    dof rx ry rz
    limits (-20.0 45.0)
           (-30.0 30.0)
           (-30.0 30.0)
  end
  begin
     id 17 
     name lclavicle
     direction 0.929368 0.362991 -0.0671771  
     length 3.04887  
     axis 0 0 0   XYZ
    dof ry rz
    limits (-20.0 10.0)
           (0.0 20.0)
  end
  begin
     id 18 
     name lhumerus
     direction 1 -4.48967e-011 -7.13741e-028   
     length 4.77195   
     axis -180 -30 -90   XYZ
    dof rx ry rz
    limits (-60.0 90.0)
           (-90.0 90.0)
           (-90.0 90.0)
  end
  begin
     id 19
     name lradius
     direction 1 -4.48977e-011 3.60404e-027   
     length 2.98444   
     axis -180 -30 -90   XYZ
    dof rx
    limits (-10.0 170.0)
  end
  begin
     id 20
     name lwrist
     direction 1 -4.48997e-011 7.54877e-027   
     length 1.49222   
     axis -7.18178e-015 90 90   XYZ
    dof ry
    limits (-180.0 0.0)
 end
  begin
     id 21 
     name lhand
     direction 1 -4.489e-011 1.51105e-026   
     length 0.992285   
     axis -9.63605e-015 90 90   XYZ
    dof rx rz
    limits (-90.0 90.0)
           (-45.0 45.0)
  end
  begin
     id 22 
     name lfingers
     direction 1 -4.48998e-011 3.01948e-026   
     length 0.800006   
     axis -1.92718e-014 90 90   XYZ
    dof rx
    limits (0.0 90.0)
  end
  begin
     id 23
     name lthumb
     direction 0.707107 -6.34881e-011 0.707107   
     length 1.14865   
     axis -90 45 -3.53137e-014   XYZ
    dof rx rz
    limits (-45.0 45.0)
           (-45.0 45.0)
  end
  begin
     id 24 
     name rclavicle
     direction -0.945672 0.324529 0.0196374   
     length 3.4236  
     axis 0 0 0   XYZ 
    dof ry rz
    limits (-10.0 20.0)
           (-20.0 0.0)
  end
  begin
     id 25 
     name rhumerus
     direction -1 -4.4896e-011 1.02757e-029  
     length 4.62052   
     axis -180 30 90   XYZ
    dof rx ry rz
    limits (-90.0 60.0)
           (-90.0 90.0)
           (-90.0 90.0)
  end
  begin
     id 26 
     name rradius
     direction -1 -4.48982e-011 3.85962e-027   
     length 2.95332   
     axis -180 30 90   XYZ
    dof rx
    limits (-10.0 170.0)
  end
  begin
     id 27 
     name rwrist
     direction -1 -4.48961e-011 7.55118e-027   
     length 1.47666   
     axis -7.18178e-015 -90 -90   XYZ
    dof ry
    limits (-180.0 0.0)
  end
  begin
     id 28
     name rhand
     direction -1 -4.48984e-011 1.50994e-026   
     length 0.990956   
     axis -9.63605e-015 -90 -90   XYZ
    dof rx rz
    limits (-90.0 90.0)
           (-45.0 45.0)
  end
  begin
     id 29
     name rfingers
     direction -1 -4.4892e-011 3.02158e-026   
     length 0.798934   
     axis -1.92718e-014 -90 -90   XYZ
    dof rx
    limits (0.0 90.0)
  end
  begin
     id 30
     name rthumb
     direction -0.707107 -6.34916e-011 0.707107   
     length 1.14711   
     axis -90 -45 3.53137e-014   XYZ
    dof rx rz
    limits (-45.0 45.0)
           (-45.0 45.0)
  end
:hierarchy
  begin
    root lhipjoint rhipjoint lowerback
    lhipjoint lfemur
    lfemur ltibia
    ltibia lfoot
    lfoot ltoes
    rhipjoint rfemur
    rfemur rtibia
    rtibia rfoot
    rfoot rtoes
    lowerback upperback
    upperback thorax
    thorax lowerneck lclavicle rclavicle
    lowerneck upperneck
    upperneck head
    lclavicle lhumerus
    lhumerus lradius
    lradius lwrist
    lwrist lhand lthumb
    lhand lfingers
    rclavicle rhumerus
    rhumerus rradius
    rradius rwrist
    rwrist rhand rthumb
    rhand rfingers
  end

#!OML:ASF H:\ManfredObstacles\Project 1\Capture day 1\Session 1\Male.ASF
:FULLY-SPECIFIED
:DEGREES
26
root -3.20065 15.9423 47.7684 -170.552 -8.29674 -177.536
lowerback -9.49024 -2.26674 -1.76325
upperback 0.095512 -2.96233 1.66616
thorax 5.60412 -1.55279 2.30845
lowerneck 2.93246 -3.27346 -6.27298
upperneck -10.6424 -4.26338 10.4188
head -3.25176 -2.53258 4.36478
rclavicle -2.21024e-014 2.33572e-014
rhumerus -43.734 -32.8124 -65.3519
rradius 21.0251
rwrist 44.2514
rhand -2.46573 -6.71102
rfingers 7.12502
rthumb 23.2266 -35.3304
lclavicle -2.21024e-014 2.33572e-014
lhumerus -27.1015 15.7246 84.4066
lradius 21.1518
lwrist -22.2054
lhand -2.17676 5.37486
lfingers 7.12502
lthumb 23.5038 33.959
rfemur -32.8869 -4.36285 20.4737
rtibia 30.0923
rfoot -9.14774 11.035
rtoes 6.64577
lfemur 4.08143 -3.92295 -20.1858
ltibia 2.06736e-014
lfoot -4.83263 -4.53712
ltoes 28.6268
27
root -3.20311 15.918 47.7664 -170.564 -8.234 -177.645
lowerback -9.38398 -2.31662 -1.94022
upperback 0.0981258 -3.01101 1.69263
thorax 5.56067 -1.58151 2.43239
lowerneck 2.9362 -3.17494 -6.26015
upperneck -10.8515 -4.13618 10.3329
head -3.32841 -2.47362 4.33904
rclavicle 1.33558e-014 8.94531e-016
rhumerus -43.4675 -32.498 -65.655
rradius 21.173
rwrist 43.6897
rhand -2.50853 -6.50527
rfingers 7.12502
rthumb 23.1856 -35.1298
lclavicle 1.33558e-014 8.94531e-016
lhumerus -27.3359 16.6539 84.0258
lradius 20.4565
lwrist -23.0546
lhand -1.82543 5.34651
lfingers 7.12502
lthumb 23.8408 33.887
rfemur -32.8641 -4.3349 20.3328
rtibia 30.0464
rfoot -9.09799 11.0146
rtoes 6.51801
lfemur 3.87293 -3.88821 -20.2811
ltibia -2.8625e-014
lfoot -4.3275 -4.77507
ltoes 34.058
28
root -3.20853 15.9395 47.7616 -170.545 -8.09256 -177.668
lowerback -9.38127 -2.33014 -2.00994
upperback 0.0938329 -3.02373 1.7249
thorax 5.56095 -1.59043 2.50369
lowerneck 2.93158 -3.11113 -6.29156
upperneck -10.9171 -4.05495 10.2822
head -3.35488 -2.43165 4.32836
rclavicle 1.32937e-014 2.16675e-014
rhumerus -43.255 -32.1637 -65.9388
rradius 21.3316
rwrist 43.1736
rhand -2.46986 -6.43797
rfingers 7.12502
rthumb 23.2227 -35.0578
lclavicle 1.32937e-014 2.16675e-014
lhumerus -27.63 17.7031 83.5631
lradius 19.8385
lwrist -23.9248
lhand -1.4167 5.81321
lfingers 7.12502
lthumb 24.2327 34.302
rfemur -32.8632 -4.34637 20.3183
rtibia 30.1057
rfoot -9.0927 11.1915
rtoes 6.90446
lfemur 4.15583 -3.73856 -20.3834
ltibia 1.27222e-014
lfoot -4.95362 -4.62136
ltoes 28.3118
29
root -3.21572 15.9429 47.7556 -170.474 -8.07742 -177.54
lowerback -9.49605 -2.33918 -1.82293
upperback 0.10603 -3.05758 1.74261
thorax 5.63153 -1.60338 2.40754
lowerneck 2.88264 -3.06509 -6.34178
upperneck -10.9341 -3.99163 10.3571
head -3.35405 -2.40344 4.35777
rclavicle -2.36989e-014 4.37326e-015
rhumerus -43.0539 -31.944 -66.2882
rradius 21.4735
rwrist 42.764
rhand -2.54602 -6.60509
rfingers 7.12502
rthumb 23.1496 -35.2341
lclavicle -2.36989e-014 4.37326e-015
lhumerus -27.834 18.6042 83.0898
lradius 19.0804
lwrist -25.1689
lhand -1.44204 6.176
lfingers 7.12502
lthumb 24.2085 34.668
rfemur -32.9416 -4.43803 20.4919
rtibia 30.1198
rfoot -9.04786 11.3889
rtoes 7.2593
lfemur 4.0976 -3.70172 -20.2591
ltibia 5.725e-014
lfoot -4.99816 -4.62107
ltoes 28.1448
30
root -3.22111 15.9265 47.753 -170.431 -8.093 -177.311
lowerback -9.55867 -2.30391 -1.56439
upperback 0.110376 -3.04373 1.7851
thorax 5.65916 -1.59109 2.30618
lowerneck 2.88427 -3.08248 -6.24867
upperneck -10.9808 -4.01305 10.3353
head -3.36908 -2.41913 4.33743
rclavicle -1.24303e-014 7.35503e-015
rhumerus -42.944 -31.8917 -66.5172
rradius 21.6034
rwrist 42.4592
rhand -2.6863 -6.81177
rfingers 7.12502
rthumb 23.015 -35.4577
lclavicle -1.24303e-014 7.35503e-015
lhumerus -28.12 19.1617 82.7602
lradius 18.0973
lwrist -27.4574
lhand -2.74658 6.02622
lfingers 7.12502
lthumb 22.9572 34.6793
rfemur -33.021 -4.42323 20.7392
rtibia 30.0972
rfoot -9.07069 11.4066
rtoes 6.84053
lfemur 3.79002 -3.68954 -19.9989
ltibia 5.56597e-014
lfoot -4.55655 -4.74031
ltoes 32.3475
31
root -3.22661 15.9389 47.7543 -170.433 -7.89968 -177.277
lowerback -9.52171 -2.2196 -1.595
upperback 0.112222 -2.92994 1.80772
thorax 5.63673 -1.53628 2.36519
lowerneck 2.95747 -3.11101 -6.12906
upperneck -11.0607 -4.05166 10.2474
head -3.40701 -2.44184 4.29517
rclavicle 4.0316e-015 -8.84592e-015
rhumerus -42.9543 -32.0719 -66.4236
rradius 21.6687
rwrist 42.4561
rhand -2.7389 -6.65834
rfingers 7.12502
rthumb 22.9645 -35.3105
lclavicle 4.0316e-015 -8.84592e-015
lhumerus -28.5059 20.1111 82.297
lradius 17.0458
lwrist -30.1704
lhand -4.2008 6.12548
lfingers 7.12502
lthumb 21.5611 34.9453
rfemur -33.0496 -4.30461 20.7423
rtibia 30.1645
rfoot -9.1284 11.4417
rtoes 6.43133
lfemur 3.97204 -3.48536 -20.0257
ltibia 7.95139e-015
lfoot -4.8701 -4.67762
ltoes 29.6243
